<?xml version="1.0" standalone="no"?>
<!DOCTYPE svg PUBLIC "-//W3C//DTD SVG 20010904//EN"
 "http://www.w3.org/TR/2001/REC-SVG-20010904/DTD/svg10.dtd">
<svg version="1.0" xmlns="http://www.w3.org/2000/svg"
 width="1562.000000pt" height="789.000000pt" viewBox="0 0 1562.000000 789.000000"
 preserveAspectRatio="xMidYMid meet">
<metadata>
Created by potrace 1.16, written by Peter Selinger 2001-2019
</metadata>
<g transform="translate(0.000000,789.000000) scale(0.100000,-0.100000)"
fill="#000000" stroke="none">
<path d="M8950 7861 c-387 -82 -743 -201 -1100 -367 -177 -82 -237 -119 -306
-189 -111 -113 -161 -248 -151 -405 6 -100 32 -180 86 -270 22 -36 36 -68 33
-72 -4 -4 -30 0 -57 8 -37 12 -96 17 -225 18 -163 1 -179 -1 -235 -23 -78 -31
-186 -138 -240 -236 -21 -38 -66 -119 -100 -180 -88 -155 -160 -301 -179 -364
-9 -32 -16 -91 -16 -142 0 -177 61 -300 282 -564 188 -225 539 -670 626 -795
141 -201 183 -296 207 -476 27 -197 78 -314 186 -424 31 -31 127 -104 215
-162 216 -143 241 -169 340 -364 72 -140 83 -168 89 -229 26 -282 94 -514 203
-699 69 -116 144 -200 267 -298 203 -161 202 -160 230 -264 68 -257 208 -496
384 -654 42 -37 152 -136 244 -219 181 -162 345 -299 417 -348 137 -93 288
-143 429 -143 242 0 438 127 573 371 l43 78 81 1 c104 0 165 -19 294 -91 173
-97 199 -104 380 -103 142 0 162 2 240 28 47 15 141 55 209 88 102 49 136 71
186 122 63 62 112 144 145 241 l17 50 69 7 c38 4 130 12 204 18 546 45 1328
287 1860 573 294 159 439 266 510 377 18 28 43 82 57 122 32 91 35 221 9 313
l-17 61 39 90 c131 297 174 661 102 869 -68 198 -238 388 -437 488 -148 75
-366 104 -553 73 -52 -8 -95 -14 -95 -13 -1 1 -25 44 -54 95 -108 190 -250
359 -425 506 -62 52 -127 111 -145 131 -62 71 -91 171 -91 313 -1 246 -97 416
-323 570 -173 118 -219 187 -237 355 -5 53 -18 119 -29 147 -65 171 -232 307
-426 347 -69 14 -94 14 -180 4 -117 -14 -101 -19 -310 84 -229 112 -462 186
-685 215 l-95 13 -105 101 c-513 495 -1031 832 -1700 1108 -300 124 -324 131
-475 134 -112 3 -149 0 -265 -25z m386 -115 c70 -19 358 -134 529 -213 550
-252 994 -558 1432 -986 l132 -129 75 -8 c263 -30 472 -94 755 -234 85 -41
174 -78 198 -82 25 -4 84 -1 132 6 146 21 257 -14 369 -115 84 -76 118 -148
132 -277 21 -204 88 -302 300 -445 188 -126 259 -263 260 -498 0 -142 45 -272
123 -361 21 -24 84 -81 141 -128 198 -163 368 -376 463 -582 22 -49 25 -52 71
-57 26 -3 94 1 152 10 121 18 262 13 354 -12 190 -52 357 -188 459 -375 50
-90 67 -165 67 -290 0 -189 -38 -363 -121 -562 -53 -128 -58 -160 -33 -246 11
-38 15 -80 12 -138 -9 -164 -96 -274 -328 -413 -316 -191 -699 -356 -1115
-484 -391 -120 -684 -176 -1022 -197 -93 -6 -180 -15 -195 -21 -25 -10 -53
-59 -73 -129 -17 -58 -80 -162 -122 -201 -50 -46 -227 -134 -344 -171 -62 -19
-95 -23 -199 -22 -144 0 -165 6 -311 90 -53 30 -122 63 -153 74 -70 25 -230
41 -314 32 l-63 -7 -28 -66 c-99 -236 -285 -379 -493 -379 -171 0 -307 68
-548 274 -378 323 -572 515 -650 640 -64 105 -129 263 -160 387 -12 49 -31
101 -42 114 -11 14 -77 70 -146 124 -204 159 -276 243 -364 426 -60 127 -102
286 -128 491 -11 82 -27 168 -36 190 -9 21 -52 106 -97 187 -98 179 -132 213
-345 354 -168 111 -221 157 -269 231 -47 73 -71 148 -89 272 -27 200 -85 336
-226 533 -101 141 -479 621 -631 802 -147 174 -203 256 -234 348 -22 61 -25
85 -21 159 4 84 7 93 64 206 110 217 248 454 292 499 23 25 64 54 90 65 93 42
319 33 441 -17 34 -14 66 -25 71 -23 17 7 139 178 130 183 -24 15 -121 177
-140 235 -18 52 -21 81 -18 145 8 134 72 239 194 321 117 77 538 254 789 332
416 129 692 175 831 138z"/>
<path d="M9299 7397 c-75 -31 -281 -141 -349 -186 -30 -20 -63 -39 -72 -43
-20 -8 -24 -38 -8 -54 7 -7 7 -19 1 -36 -5 -14 -5 -31 -1 -38 5 -8 6 -19 2
-25 -9 -13 -10 -55 -1 -55 4 0 10 -7 13 -16 3 -8 2 -12 -4 -9 -6 4 -10 -8 -11
-27 0 -18 -1 -54 -2 -81 -2 -52 1 -55 29 -29 30 28 249 163 369 229 130 70
295 147 418 193 70 27 89 38 94 58 8 33 -6 43 -122 94 -93 40 -107 43 -200 46
-86 2 -108 -1 -156 -21z"/>
<path d="M9984 7035 c-344 -102 -793 -340 -1070 -569 -11 -8 -30 -24 -44 -35
l-25 -20 25 5 c20 5 22 3 10 -5 -13 -10 -13 -12 0 -20 13 -9 13 -11 -1 -16
-18 -7 -23 -45 -6 -45 8 0 8 -3 2 -8 -14 -10 -17 -122 -3 -122 7 0 7 -4 -1
-13 -10 -13 -8 -53 4 -65 2 -3 0 -11 -7 -19 -8 -10 -7 -17 8 -29 19 -15 19
-15 0 -10 -15 5 -17 4 -8 -7 9 -10 8 -17 -1 -26 -9 -10 -8 -11 7 -5 15 6 17 4
11 -7 -4 -8 14 7 41 33 384 368 938 657 1450 757 60 12 119 24 132 27 15 3 22
12 22 28 0 19 -20 37 -101 90 -167 109 -281 129 -445 81z"/>
<path d="M10675 6580 c-337 -38 -727 -163 -1016 -325 -100 -56 -329 -206 -329
-215 0 -4 22 -21 50 -39 57 -37 111 -99 138 -158 l18 -41 80 54 c412 285 907
432 1424 422 235 -4 234 -5 87 139 -159 157 -241 186 -452 163z"/>
<path d="M10855 5999 c-577 -32 -1145 -315 -1516 -757 -163 -194 -310 -445
-387 -662 -76 -215 -97 -319 -79 -402 3 -16 1 -28 -4 -28 -10 0 -6 -50 6 -69
3 -6 0 -11 -7 -11 -9 0 -9 -3 2 -10 9 -6 10 -10 3 -10 -16 0 -13 -57 4 -89 17
-34 16 -42 -2 -35 -11 5 -15 -1 -15 -20 0 -14 5 -26 11 -26 5 0 8 -4 5 -9 -4
-5 0 -12 6 -14 8 -3 6 -6 -4 -6 -11 -1 -15 -6 -12 -16 4 -8 10 -12 15 -9 5 3
7 -1 4 -8 -2 -7 8 -31 23 -53 47 -68 60 -62 221 110 84 90 141 158 141 171 0
29 -19 44 -59 44 -61 0 -63 5 -40 115 112 552 483 1032 995 1289 930 464 2058
75 2509 -866 337 -704 196 -1549 -353 -2104 -385 -390 -921 -594 -1455 -553
-470 35 -879 225 -1206 559 -137 140 -277 341 -351 503 -17 37 -34 67 -39 67
-4 0 -16 -8 -25 -19 -29 -32 -131 -71 -200 -78 -37 -3 -66 -7 -66 -9 0 -13
108 -225 150 -294 118 -194 318 -424 490 -563 659 -532 1573 -637 2327 -268
226 112 384 223 566 401 357 347 579 793 642 1290 21 165 16 472 -10 620 -83
464 -289 867 -609 1185 -448 446 -1041 670 -1681 634z"/>
<path d="M12407 5883 c-19 -19 -2 -46 61 -93 308 -234 552 -527 722 -870 128
-257 199 -489 242 -795 20 -136 16 -493 -6 -640 -140 -937 -779 -1697 -1673
-1991 -194 -64 -376 -98 -635 -119 l-77 -7 14 -38 c28 -81 28 -179 -1 -254 -7
-19 -3 -19 112 -12 1012 57 1933 690 2350 1614 170 378 249 757 242 1169 -4
243 -3 243 -116 361 -139 146 -188 270 -202 505 -13 212 -35 253 -190 357
-176 119 -278 240 -331 394 -16 44 -31 113 -34 151 -10 113 -24 155 -70 200
-52 52 -100 65 -230 63 -55 -2 -116 1 -136 5 -19 4 -38 4 -42 0z"/>
<path d="M8888 5483 c-11 -3 -18 -15 -19 -31 -3 -101 0 -192 5 -200 3 -6 3
-13 -2 -16 -9 -5 -7 -75 2 -84 3 -2 1 -13 -5 -23 -6 -13 -6 -19 1 -19 5 0 10
-5 10 -11 0 -5 -4 -7 -10 -4 -5 3 -10 -2 -10 -13 0 -10 10 -24 23 -31 12 -6
33 -18 46 -26 18 -10 30 -11 44 -3 19 10 19 18 12 216 -4 113 -11 216 -16 229
-8 23 -36 28 -81 16z"/>
<path d="M10746 5395 c-655 -107 -1165 -596 -1308 -1258 -19 -87 -22 -133 -22
-312 0 -179 3 -225 22 -311 43 -200 129 -406 235 -564 58 -87 170 -223 228
-275 l41 -36 34 72 c19 40 55 101 79 136 25 35 45 66 45 69 0 3 -23 31 -50 62
-348 391 -425 954 -192 1417 60 120 131 216 241 326 190 190 388 297 656 355
112 24 370 24 480 0 205 -45 430 -148 541 -248 22 -19 22 -19 42 14 44 70 164
158 217 158 25 0 16 13 -45 63 -188 152 -422 263 -672 318 -124 28 -441 35
-572 14z"/>
<path d="M10813 4806 c-303 -58 -567 -255 -703 -526 -161 -319 -141 -703 50
-993 52 -79 126 -167 141 -167 6 0 37 18 70 41 33 22 95 57 137 77 42 19 78
36 79 37 1 0 -33 37 -75 80 -132 137 -192 284 -192 470 0 120 19 206 65 300
89 179 247 307 446 361 85 23 242 23 329 0 303 -80 510 -348 510 -661 0 -184
-62 -335 -192 -470 -42 -43 -76 -80 -75 -80 1 -1 37 -18 79 -37 42 -20 104
-55 137 -77 33 -23 65 -41 70 -41 6 0 36 30 67 68 284 342 310 820 65 1192
-49 75 -173 203 -247 256 -81 58 -229 127 -329 154 -103 28 -326 36 -432 16z"/>
<path d="M12282 4361 c-8 -4 -47 -100 -89 -211 -73 -200 -74 -203 -55 -222 18
-18 22 -19 69 -5 l51 15 6 -56 c7 -68 -7 -235 -29 -329 -48 -212 -142 -396
-286 -563 -32 -38 -59 -71 -59 -73 0 -2 24 -41 54 -86 30 -46 65 -107 77 -136
l22 -54 38 30 c52 41 181 196 246 297 103 157 180 347 224 552 19 89 23 137
24 315 l1 209 35 9 c45 12 59 24 59 53 0 20 -30 44 -181 144 -99 66 -183 120
-187 120 -4 0 -13 -4 -20 -9z"/>
<path d="M10900 4217 c-174 -41 -301 -178 -332 -356 -49 -286 208 -542 494
-493 272 47 432 322 337 578 -60 159 -205 266 -377 279 -38 2 -91 -1 -122 -8z"/>
<path d="M10868 3140 c-151 -24 -298 -82 -412 -164 -134 -96 -272 -270 -327
-415 l-19 -51 47 -31 c140 -90 354 -173 545 -211 161 -32 424 -32 586 0 196
39 400 118 544 211 l48 30 -21 53 c-39 102 -104 202 -188 290 -176 186 -387
282 -641 293 -58 2 -131 0 -162 -5z"/>
<path d="M13803 2953 c-19 -7 -16 -53 13 -193 14 -69 28 -138 30 -155 16 -92
19 -99 46 -106 36 -9 40 -3 23 37 -8 19 -10 34 -6 34 5 0 6 12 4 28 -9 54 -10
102 -1 102 11 0 6 23 -7 32 -6 5 -5 8 4 8 11 0 11 3 1 15 -7 8 -9 15 -4 15 5
0 2 5 -6 10 -8 5 -10 10 -4 10 6 0 10 11 9 25 -2 14 1 27 6 31 5 3 5 12 0 22
-14 26 -14 34 0 42 8 6 -2 15 -29 29 -41 21 -56 24 -79 14z"/>
<path d="M8866 2565 c-3 -8 -1 -15 4 -15 6 0 10 -5 10 -11 0 -5 -4 -7 -10 -4
-6 4 -9 -10 -7 -34 1 -21 6 -37 11 -34 4 3 5 -5 0 -18 -4 -13 -7 -33 -6 -44 1
-10 -2 -24 -7 -30 -10 -13 13 -57 25 -47 4 4 3 0 -4 -9 -10 -13 -6 -34 22
-111 18 -52 38 -103 44 -114 16 -30 222 -226 349 -333 112 -94 125 -111 142
-189 5 -24 11 -46 14 -48 2 -2 52 -33 110 -68 110 -66 256 -140 355 -181 55
-23 57 -25 53 -57 -3 -18 -5 -53 -5 -78 -1 -39 2 -45 21 -48 12 -2 107 36 212
84 188 85 214 104 195 136 -26 43 -256 327 -269 332 -26 10 -44 -5 -56 -45 -7
-21 -16 -39 -20 -39 -18 0 -303 151 -384 204 -268 174 -530 431 -705 691 -28
41 -55 75 -60 75 -5 0 -7 6 -4 13 3 8 -2 19 -9 26 -12 9 -16 8 -21 -4z"/>
<path d="M13367 1918 c-163 -202 -363 -393 -584 -555 -96 -70 -120 -101 -95
-117 5 -3 68 -15 140 -28 235 -40 291 -17 526 217 124 123 346 378 346 397 0
3 -19 10 -42 17 -60 18 -132 66 -177 118 l-38 45 -76 -94z"/>
<path d="M13892 1638 c-7 -7 -12 -17 -12 -24 0 -7 -4 -14 -9 -16 -5 -1 -61
-64 -125 -138 -161 -188 -156 -205 37 -143 101 33 122 43 120 59 -1 10 4 22
10 26 8 5 8 8 1 8 -6 0 -11 7 -11 15 0 8 5 15 11 15 6 0 5 4 -3 9 -13 8 -13
12 -1 26 9 10 10 19 4 23 -13 9 -16 52 -3 52 6 0 5 9 -2 21 -8 15 -8 19 0 15
15 -10 14 7 -1 22 -7 7 -8 12 -2 12 6 0 11 7 11 15 0 18 -9 19 -25 3z"/>
<path d="M12220 1040 c-125 -58 -333 -130 -485 -168 -94 -24 -112 -31 -124
-54 -12 -20 -13 -34 -6 -55 8 -23 32 -39 125 -86 159 -80 194 -83 355 -29 160
54 188 66 230 104 45 39 69 86 89 172 21 89 20 129 -2 149 -29 26 -68 19 -182
-33z"/>
<path d="M9787 974 c104 -113 273 -279 383 -375 217 -190 358 -255 490 -228
48 10 63 20 122 79 75 75 143 198 154 281 l6 46 -153 12 c-353 27 -611 86
-929 213 -69 28 -132 53 -140 56 -8 3 22 -34 67 -84z"/>
<path d="M2896 4535 c-3 -8 -8 -37 -12 -64 l-6 -50 158 -79 c147 -73 341 -186
394 -229 194 -158 273 -294 266 -461 -7 -179 -96 -288 -284 -349 -66 -22 -100
-26 -247 -30 l-170 -5 54 28 c30 15 85 56 123 92 81 77 133 171 150 275 33
199 -87 409 -289 504 -70 34 -88 38 -175 41 -119 5 -205 -18 -297 -79 -78 -52
-132 -115 -179 -208 -36 -74 -37 -77 -37 -191 0 -114 1 -117 38 -193 48 -96
140 -192 228 -236 l62 -31 -294 0 c-384 0 -454 15 -550 111 -69 69 -92 133
-100 284 -5 84 -15 153 -28 196 -54 171 -219 327 -396 374 -47 12 -123 15
-370 15 -275 0 -319 -2 -393 -20 -231 -55 -356 -145 -441 -317 -53 -106 -61
-188 -61 -624 l0 -389 135 0 135 0 0 433 c0 270 4 456 11 492 15 81 50 146
102 189 71 58 129 79 236 84 l93 4 -48 -58 c-109 -135 -153 -330 -109 -497 38
-146 163 -301 295 -365 223 -109 486 -69 661 99 l61 59 56 -50 c66 -59 185
-123 273 -147 58 -16 128 -18 789 -18 675 0 729 1 785 18 93 29 173 76 244
144 l66 63 45 -44 c75 -73 176 -131 285 -163 67 -20 389 -29 470 -14 82 15
172 60 221 109 l41 41 37 -38 c151 -155 532 -161 695 -11 l34 31 31 -30 c43
-41 148 -88 226 -100 256 -41 468 38 558 207 59 110 64 152 69 535 l5 347
-121 0 -121 0 0 -331 c0 -349 -5 -402 -50 -489 -30 -59 -90 -106 -151 -119
-137 -30 -246 31 -300 166 -23 56 -24 69 -27 416 l-3 357 -119 0 -119 0 -3
-362 c-3 -345 -4 -366 -25 -416 -46 -114 -114 -163 -226 -166 -126 -2 -208 58
-249 184 -20 61 -22 89 -26 413 l-4 347 -113 0 -113 0 -4 -347 c-6 -384 -9
-407 -71 -500 -50 -75 -100 -95 -251 -101 -206 -8 -340 30 -419 117 -62 69
-78 118 -87 271 -10 150 -25 213 -76 311 -57 108 -159 196 -344 297 -65 35
-602 282 -614 282 -2 0 -6 -7 -10 -15z m-1649 -492 c72 -33 144 -145 169 -262
17 -84 17 -139 -1 -224 -59 -281 -299 -377 -438 -175 -128 186 -110 473 38
618 67 66 149 81 232 43z m1661 13 c70 -37 125 -125 149 -240 49 -233 -100
-471 -268 -426 -81 22 -154 121 -180 241 -7 30 -9 90 -6 137 4 70 11 96 40
156 38 75 63 105 112 130 37 20 117 21 153 2z"/>
<path d="M687 2640 c-267 -20 -479 -99 -567 -210 -58 -73 -75 -125 -74 -230 0
-83 3 -101 26 -146 44 -84 111 -132 239 -173 99 -32 218 -49 559 -81 173 -17
344 -35 380 -41 217 -36 297 -81 307 -173 9 -72 -4 -113 -50 -163 -87 -94
-215 -132 -479 -140 -381 -12 -603 54 -781 232 l-57 57 -88 -37 c-48 -20 -91
-41 -96 -45 -14 -13 61 -107 133 -166 122 -101 291 -173 496 -210 140 -26 519
-26 650 -1 189 37 308 89 397 175 83 79 111 142 116 262 5 110 -6 158 -48 222
-88 133 -260 185 -750 228 -402 35 -565 61 -651 106 -78 40 -91 152 -26 222
88 95 349 143 649 122 239 -17 386 -71 508 -186 l68 -64 71 30 c39 17 83 35
97 40 l25 10 -18 31 c-10 17 -49 61 -88 98 -116 110 -281 182 -490 214 -130
20 -323 27 -458 17z"/>
<path d="M2315 2588 c-3 -7 -4 -337 -3 -733 l3 -720 113 -3 112 -3 0 331 0
330 615 0 615 0 0 -330 0 -330 115 0 115 0 0 735 0 735 -115 0 -115 0 0 -310
0 -310 -615 0 -615 0 0 310 0 310 -110 0 c-79 0 -112 -4 -115 -12z"/>
<path d="M4545 2588 c-3 -7 -4 -337 -3 -733 l3 -720 113 -3 112 -3 0 573 0
572 337 -572 337 -572 81 0 80 1 330 563 330 564 3 -564 2 -564 115 0 115 0 0
735 0 736 -132 -3 -132 -3 -344 -580 c-189 -319 -347 -586 -351 -593 -5 -9
-125 184 -360 582 l-353 596 -139 0 c-103 0 -141 -3 -144 -12z"/>
</g>
</svg>
